<svg width="24px"  height="24px"  viewBox="0 0 25 24" fill="none" xmlns="http://www.w3.org/2000/svg">
<path d="M21.1504 8.59639C21.1504 6.06666 19.581 4.28125 17.0522 4.28125H7.25634C4.73634 4.28125 3.15039 6.06666 3.15039 8.59639V15.415C3.15039 17.936 4.72758 19.7214 7.25634 19.7214H17.0435C19.581 19.7214 21.1504 17.936 21.1504 15.415V8.59639Z" stroke="#000000"  stroke-width="1.5"  stroke-linecap="round" stroke-linejoin="round"/>
<path d="M6.35938 16.0173C6.35938 15.0453 7.12608 13.8359 9.3357 13.8359C11.5453 13.8359 12.312 15.0366 12.312 16.0086" stroke="#000000"  stroke-width="1.5"  stroke-linecap="round" stroke-linejoin="round"/>
<path fill-rule="evenodd" clip-rule="evenodd" d="M11.2369 9.88166C11.2369 10.9315 10.3856 11.7828 9.33576 11.7828C8.28592 11.7828 7.43457 10.9315 7.43457 9.88166C7.43457 8.83182 8.28592 7.98047 9.33576 7.98047C10.3856 7.98047 11.2369 8.83182 11.2369 9.88166Z" stroke="#000000"  stroke-width="1.5"  stroke-linecap="round" stroke-linejoin="round"/>
<path d="M14.2715 10.3477L17.744 10.3953M15.5732 14.0496H17.7439" stroke="#000000"  stroke-width="1.5"  stroke-linecap="round" stroke-linejoin="round"/>
</svg>